{
  "accessors": [
    {
      "bufferView": 2,
      "componentType": 5126,
      "count": 1136,
      "max": [
        1.3918737173080444,
        14.480165481567383,
        2.059412717819214
      ],
      "min": [
        -2.433771848678589,
        -0.5000351667404175,
        -2.0230488777160645
      ],
      "type": "VEC3"
    },
    {
      "bufferView": 2,
      "byteOffset": 13632,
      "componentType": 5126,
      "count": 1136,
      "max": [
        0.9997673034667969,
        0.9995836615562439,
        0.999539315700531
      ],
      "min": [
        -0.9996823072433472,
        -0.9995100498199463,
        -0.9998852610588074
      ],
      "type": "VEC3"
    },
    {
      "bufferView": 3,
      "componentType": 5126,
      "count": 1136,
      "max": [
        0.9975038766860962,
        0.9970967769622803,
        0.9998556971549988,
        1.0
      ],
      "min": [
        -0.9987350106239319,
        -0.9996020197868347,
        -0.9995731115341187,
        1.0
      ],
      "type": "VEC4"
    },
    {
      "bufferView": 1,
      "componentType": 5126,
      "count": 1136,
      "max": [
        0.997901201248169,
        1.0
      ],
      "min": [
        0.0,
        0.0
      ],
      "type": "VEC2"
    },
    {
      "bufferView": 0,
      "componentType": 5125,
      "count": 5964,
      "type": "SCALAR"
    },
    {
      "bufferView": 2,
      "byteOffset": 27264,
      "componentType": 5126,
      "count": 2856,
      "max": [
        1.971962332725525,
        8.651857376098633,
        2.096863031387329
      ],
      "min": [
        -2.2386207580566406,
        4.7426276206970215,
        -2.3355729579925537
      ],
      "type": "VEC3"
    },
    {
      "bufferView": 2,
      "byteOffset": 61536,
      "componentType": 5126,
      "count": 2856,
      "max": [
        0.9998364448547363,
        1.0,
        0.9995222687721252
      ],
      "min": [
        -0.9998364448547363,
        -1.0,
        -0.9996052384376526
      ],
      "type": "VEC3"
    },
    {
      "bufferView": 3,
      "byteOffset": 18176,
      "componentType": 5126,
      "count": 2856,
      "max": [
        1.0,
        0.999997615814209,
        0.9999986290931702,
        1.0
      ],
      "min": [
        -0.9646912813186646,
        -0.9999256134033203,
        -0.9999977946281433,
        -1.0
      ],
      "type": "VEC4"
    },
    {
      "bufferView": 1,
      "byteOffset": 9088,
      "componentType": 5126,
      "count": 2856,
      "max": [
        1.0,
        0.9616424441337585
      ],
      "min": [
        0.0,
        1.5815799191132296e-16
      ],
      "type": "VEC2"
    },
    {
      "bufferView": 0,
      "byteOffset": 23856,
      "componentType": 5125,
      "count": 12810,
      "type": "SCALAR"
    },
    {
      "bufferView": 2,
      "byteOffset": 95808,
      "componentType": 5126,
      "count": 456,
      "max": [
        2.1332051753997803,
        11.238885879516602,
        0.583588182926178
      ],
      "min": [
        0.16080200672149658,
        5.03834342956543,
        -0.6554288268089294
      ],
      "type": "VEC3"
    },
    {
      "bufferView": 2,
      "byteOffset": 101280,
      "componentType": 5126,
      "count": 456,
      "max": [
        0.9996253252029419,
        0.9926035404205322,
        0.9963666796684265
      ],
      "min": [
        -0.999870777130127,
        -0.9848266839981079,
        -0.9998722076416016
      ],
      "type": "VEC3"
    },
    {
      "bufferView": 3,
      "byteOffset": 63872,
      "componentType": 5126,
      "count": 456,
      "max": [
        0.9970089793205261,
        0.9851149916648865,
        0.9999408721923828,
        1.0
      ],
      "min": [
        -0.9923244714736938,
        -0.940169632434845,
        -0.9997669458389282,
        1.0
      ],
      "type": "VEC4"
    },
    {
      "bufferView": 1,
      "byteOffset": 31936,
      "componentType": 5126,
      "count": 456,
      "max": [
        0.4425639510154724,
        0.9999999403953552
      ],
      "min": [
        0.0,
        0.0
      ],
      "type": "VEC2"
    },
    {
      "bufferView": 0,
      "byteOffset": 75096,
      "componentType": 5125,
      "count": 2478,
      "type": "SCALAR"
    }
  ],
  "asset": {
    "extras": {
      "author": "arloopa (https://sketchfab.com/arloopa)",
      "license": "CC-BY-4.0 (http://creativecommons.org/licenses/by/4.0/)",
      "source": "https://sketchfab.com/3d-models/knee-anatomy-bd50aacad58b488ea80ed973b4874a08",
      "title": "Knee Anatomy"
    },
    "generator": "Sketchfab-16.59.0",
    "version": "2.0"
  },
  "bufferViews": [
    {
      "buffer": 0,
      "byteLength": 85008,
      "name": "floatBufferViews",
      "target": 34963
    },
    {
      "buffer": 0,
      "byteLength": 35584,
      "byteOffset": 85008,
      "byteStride": 8,
      "name": "floatBufferViews",
      "target": 34962
    },
    {
      "buffer": 0,
      "byteLength": 106752,
      "byteOffset": 120592,
      "byteStride": 12,
      "name": "floatBufferViews",
      "target": 34962
    },
    {
      "buffer": 0,
      "byteLength": 71168,
      "byteOffset": 227344,
      "byteStride": 16,
      "name": "floatBufferViews",
      "target": 34962
    }
  ],
  "buffers": [
    {
      "byteLength": 298512,
      "uri": "scene.bin"
    }
  ],
  "images": [
    {
      "uri": "textures/bone_baseColor.png"
    },
    {
      "uri": "textures/bone_metallicRoughness.png"
    },
    {
      "uri": "textures/bone_normal.png"
    },
    {
      "uri": "textures/mash_baseColor.png"
    },
    {
      "uri": "textures/mash_metallicRoughness.png"
    },
    {
      "uri": "textures/mash_normal.png"
    },
    {
      "uri": "textures/Opacyty_baseColor.png"
    },
    {
      "uri": "textures/Opacyty_metallicRoughness.png"
    },
    {
      "uri": "textures/Opacyty_normal.png"
    }
  ],
  "materials": [
    {
      "doubleSided": true,
      "name": "bone",
      "normalTexture": {
        "index": 2
      },
      "occlusionTexture": {
        "index": 1
      },
      "pbrMetallicRoughness": {
        "baseColorTexture": {
          "index": 0
        },
        "metallicRoughnessTexture": {
          "index": 1
        }
      }
    },
    {
      "doubleSided": true,
      "name": "mash",
      "normalTexture": {
        "index": 5
      },
      "occlusionTexture": {
        "index": 4
      },
      "pbrMetallicRoughness": {
        "baseColorTexture": {
          "index": 3
        },
        "metallicRoughnessTexture": {
          "index": 4
        }
      }
    },
    {
      "alphaMode": "BLEND",
      "doubleSided": true,
      "name": "Opacyty",
      "normalTexture": {
        "index": 8
      },
      "occlusionTexture": {
        "index": 7
      },
      "pbrMetallicRoughness": {
        "baseColorFactor": [
          1.0,
          1.0,
          1.0,
          0.4
        ],
        "baseColorTexture": {
          "index": 6
        },
        "metallicRoughnessTexture": {
          "index": 7
        }
      }
    }
  ],
  "meshes": [
    {
      "name": "Bone_Low_bone_0",
      "primitives": [
        {
          "attributes": {
            "NORMAL": 1,
            "POSITION": 0,
            "TANGENT": 2,
            "TEXCOORD_0": 3
          },
          "indices": 4,
          "material": 0,
          "mode": 4
        }
      ]
    },
    {
      "name": "Mash_Low_mash_0",
      "primitives": [
        {
          "attributes": {
            "NORMAL": 6,
            "POSITION": 5,
            "TANGENT": 7,
            "TEXCOORD_0": 8
          },
          "indices": 9,
          "material": 1,
          "mode": 4
        }
      ]
    },
    {
      "name": "Transparenty_Low_Opacyty_0",
      "primitives": [
        {
          "attributes": {
            "NORMAL": 11,
            "POSITION": 10,
            "TANGENT": 12,
            "TEXCOORD_0": 13
          },
          "indices": 14,
          "material": 2,
          "mode": 4
        }
      ]
    }
  ],
  "nodes": [
    {
      "children": [
        1
      ],
      "matrix": [
        1.0,
        0.0,
        0.0,
        0.0,
        0.0,
        2.220446049250313e-16,
        -1.0,
        0.0,
        0.0,
        1.0,
        2.220446049250313e-16,
        0.0,
        0.0,
        0.0,
        0.0,
        1.0
      ],
      "name": "Sketchfab_model"
    },
    {
      "children": [
        2
      ],
      "matrix": [
        0.009999999776482582,
        0.0,
        0.0,
        0.0,
        0.0,
        0.0,
        0.009999999776482582,
        0.0,
        0.0,
        -0.009999999776482582,
        0.0,
        0.0,
        0.0,
        0.0,
        0.0,
        1.0
      ],
      "name": "caa7834db20449eba70332c5e1f2befe.fbx"
    },
    {
      "children": [
        3
      ],
      "name": "RootNode"
    },
    {
      "children": [
        4,
        6,
        8
      ],
      "name": "Low"
    },
    {
      "children": [
        5
      ],
      "name": "Bone_Low"
    },
    {
      "mesh": 0,
      "name": "Bone_Low_bone_0"
    },
    {
      "children": [
        7
      ],
      "name": "Mash_Low"
    },
    {
      "mesh": 1,
      "name": "Mash_Low_mash_0"
    },
    {
      "children": [
        9
      ],
      "name": "Transparenty_Low"
    },
    {
      "mesh": 2,
      "name": "Transparenty_Low_Opacyty_0"
    }
  ],
  "samplers": [
    {
      "magFilter": 9729,
      "minFilter": 9987,
      "wrapS": 10497,
      "wrapT": 10497
    }
  ],
  "scene": 0,
  "scenes": [
    {
      "name": "Sketchfab_Scene",
      "nodes": [
        0
      ]
    }
  ],
  "textures": [
    {
      "sampler": 0,
      "source": 0
    },
    {
      "sampler": 0,
      "source": 1
    },
    {
      "sampler": 0,
      "source": 2
    },
    {
      "sampler": 0,
      "source": 3
    },
    {
      "sampler": 0,
      "source": 4
    },
    {
      "sampler": 0,
      "source": 5
    },
    {
      "sampler": 0,
      "source": 6
    },
    {
      "sampler": 0,
      "source": 7
    },
    {
      "sampler": 0,
      "source": 8
    }
  ]
}
